<?xml version="1.0" encoding="UTF-8"?>
<!-- Generator: Adobe Illustrator 27.8.0, SVG Export Plug-In . SVG Version: 6.00 Build 0)  -->
<svg xmlns="http://www.w3.org/2000/svg" xmlns:xlink="http://www.w3.org/1999/xlink" version="1.1" id="Layer_1" x="0px" y="0px" viewBox="0 0 576 178" style="enable-background:new 0 0 576 178;" xml:space="preserve">
<style type="text/css">
	.st0{fill:#221B34;}
	.st1{fill:#D5D800;}
	.st2{fill:#E8500E;}
	.st3{fill:#192A2E;}
</style>
<g>
	<g>
		<g>
			<path class="st0" d="M241,131.8h-8.2l-2.2,6.3h-3.2l7.9-21.9h3.2l7.9,21.9h-3.2L241,131.8z M236.9,119.2c0,0-0.5,2-0.9,3.1     l-2.4,6.9h6.6l-2.4-6.9C237.5,121.2,237,119.2,236.9,119.2L236.9,119.2z"></path>
			<path class="st0" d="M257.6,116.2h7.3c6.7,0,11.1,4,11.1,10.9c0,6.9-4.4,11-11.1,11h-7.3V116.2z M264.7,135.4     c4.9,0,8.2-2.9,8.2-8.3c0-5.4-3.3-8.2-8.2-8.2h-4v16.6H264.7z"></path>
			<path class="st0" d="M287.3,122c4.7,0,8.5,3.4,8.5,8.2c0,4.8-3.8,8.2-8.5,8.2s-8.5-3.5-8.5-8.2C278.8,125.5,282.6,122,287.3,122z      M287.3,135.8c3,0,5.4-2.4,5.4-5.6c0-3.3-2.4-5.6-5.4-5.6c-2.9,0-5.4,2.3-5.4,5.6C281.9,133.5,284.3,135.8,287.3,135.8z"></path>
			<path class="st0" d="M299.9,125h-2v-2.4h2.1v-4.5h2.9v4.5h3.8v2.4H303v7c0,3.1,2.2,3.5,3.3,3.5c0.4,0,0.7-0.1,0.7-0.1v2.7     c0,0-0.4,0.1-1.1,0.1c-2,0-6-0.6-6-5.9V125z"></path>
			<path class="st0" d="M316.5,122c3.6,0,4.8,2.5,4.8,2.5h0.1c0,0-0.1-0.5-0.1-1.1v-7.3h3v21.9h-2.9v-1.5c0-0.6,0-1.1,0-1.1h-0.1     c0,0-1.3,2.9-5.1,2.9c-4.2,0-6.9-3.3-6.9-8.2C309.4,125.2,312.3,122,316.5,122z M316.9,135.8c2.3,0,4.5-1.6,4.5-5.6     c0-2.8-1.5-5.6-4.4-5.6c-2.5,0-4.5,2-4.5,5.6C312.4,133.6,314.3,135.8,316.9,135.8z"></path>
			<path class="st0" d="M329,116.2h3v3.1h-3V116.2z M329,122.4h3v15.7h-3V122.4z"></path>
			<path class="st0" d="M342.4,142c2.7,0,5-1.2,5-4.4v-1.1c0-0.5,0-1,0-1h-0.1c-0.9,1.5-2.4,2.4-4.7,2.4c-4.4,0-7-3.5-7-8     c0-4.5,2.5-7.8,6.9-7.8c3.8,0,4.9,2.3,4.9,2.3h0.1c0,0,0-0.2,0-0.5v-1.5h2.9v15c0,5.2-3.9,7.2-7.9,7.2c-1.9,0-3.8-0.5-5.4-1.3     l1-2.4C338.1,140.9,340.1,142,342.4,142z M347.5,129.9c0-4.1-2-5.3-4.4-5.3c-2.7,0-4.3,2-4.3,5.2c0,3.3,1.7,5.5,4.6,5.5     C345.5,135.3,347.5,134,347.5,129.9z"></path>
			<path class="st0" d="M355.1,116.2h3v3.1h-3V116.2z M355.1,122.4h3v15.7h-3V122.4z"></path>
			<path class="st0" d="M363.5,125h-2v-2.4h2.1v-4.5h2.9v4.5h3.8v2.4h-3.8v7c0,3.1,2.2,3.5,3.3,3.5c0.4,0,0.7-0.1,0.7-0.1v2.7     c0,0-0.4,0.1-1.1,0.1c-2,0-6-0.6-6-5.9V125z"></path>
			<path class="st0" d="M382.1,128.3h0.7V128c0-2.6-1.5-3.4-3.4-3.4c-2.4,0-4.4,1.5-4.4,1.5l-1.2-2.2c0,0,2.3-1.9,5.9-1.9     c4,0,6.2,2.2,6.2,6.1v9.9H383v-1.5c0-0.7,0.1-1.2,0.1-1.2H383c0,0-1.3,3.1-5,3.1c-2.7,0-5.3-1.6-5.3-4.8     C372.7,128.5,379.5,128.3,382.1,128.3z M378.7,136c2.5,0,4.2-2.7,4.2-5v-0.5h-0.8c-2.3,0-6.4,0.2-6.4,3     C375.7,134.8,376.7,136,378.7,136z"></path>
			<path class="st0" d="M390.1,116.2h3v17.1c0,1.9,0.7,2.2,1.7,2.2c0.3,0,0.5,0,0.5,0v2.7c0,0-0.5,0.1-1,0.1c-1.7,0-4.2-0.5-4.2-4.4     V116.2z"></path>
			<path class="st0" d="M416.8,115.8c5.3,0,8,2.9,8,2.9l-1.5,2.3c0,0-2.5-2.4-6.3-2.4c-4.9,0-8.1,3.7-8.1,8.4c0,4.7,3.3,8.7,8.1,8.7     c4.1,0,6.8-2.9,6.8-2.9l1.6,2.2c0,0-3,3.5-8.5,3.5c-6.6,0-11.2-5-11.2-11.4C405.6,120.7,410.4,115.8,416.8,115.8z"></path>
			<path class="st0" d="M436.2,122c4.7,0,8.5,3.4,8.5,8.2c0,4.8-3.8,8.2-8.5,8.2s-8.5-3.5-8.5-8.2C427.7,125.5,431.5,122,436.2,122z      M436.2,135.8c3,0,5.4-2.4,5.4-5.6c0-3.3-2.4-5.6-5.4-5.6c-2.9,0-5.4,2.3-5.4,5.6C430.8,133.5,433.2,135.8,436.2,135.8z"></path>
			<path class="st0" d="M448.2,122.4h2.9v2.1c0,0.6-0.1,1.1-0.1,1.1h0.1c0.7-1.8,2.9-3.6,5.4-3.6c2.6,0,4.2,1.2,4.7,3.6h0.1     c0.9-1.9,3-3.6,5.6-3.6c3.5,0,5.2,2,5.2,6v10h-3v-9.4c0-2.2-0.4-3.9-2.8-3.9c-2.2,0-3.8,1.9-4.4,4c-0.2,0.7-0.2,1.4-0.2,2.2v7.2     h-3v-9.4c0-2-0.3-3.9-2.7-3.9c-2.3,0-3.9,1.9-4.5,4.1c-0.2,0.6-0.2,1.3-0.2,2v7.2h-3V122.4z"></path>
			<path class="st0" d="M476.5,122.4h2.8v1.3c0,0.6-0.1,1.1-0.1,1.1h0.1c0,0,1.3-2.9,5.3-2.9c4.2,0,6.9,3.3,6.9,8.2     c0,5-3,8.2-7.1,8.2c-3.4,0-4.8-2.6-4.8-2.6h-0.1c0,0,0.1,0.6,0.1,1.4v7h-3V122.4z M483.9,135.9c2.5,0,4.5-2,4.5-5.6     c0-3.4-1.8-5.6-4.4-5.6c-2.4,0-4.5,1.6-4.5,5.6C479.5,133.1,481,135.9,483.9,135.9z"></path>
			<path class="st0" d="M503.3,128.3h0.7V128c0-2.6-1.5-3.4-3.4-3.4c-2.4,0-4.4,1.5-4.4,1.5l-1.2-2.2c0,0,2.3-1.9,5.9-1.9     c4,0,6.2,2.2,6.2,6.1v9.9h-2.8v-1.5c0-0.7,0.1-1.2,0.1-1.2h-0.1c0,0-1.3,3.1-5,3.1c-2.7,0-5.3-1.6-5.3-4.8     C493.9,128.5,500.7,128.3,503.3,128.3z M499.9,136c2.5,0,4.2-2.7,4.2-5v-0.5h-0.8c-2.3,0-6.4,0.2-6.4,3     C496.9,134.8,497.9,136,499.9,136z"></path>
			<path class="st0" d="M511.5,122.4h2.9v2.1c0,0.6-0.1,1.1-0.1,1.1h0.1c0.6-1.4,2.5-3.6,5.9-3.6c3.7,0,5.4,2,5.4,6v10h-3v-9.4     c0-2.2-0.5-3.9-3-3.9c-2.4,0-4.3,1.6-5,3.8c-0.2,0.6-0.2,1.3-0.2,2.1v7.3h-3V122.4z"></path>
			<path class="st0" d="M529.1,141.3c0,0,0.9,0.7,1.8,0.7c1.2,0,2.2-0.9,2.8-2.3l0.8-1.8l-6.6-15.5h3.4l3.9,10.3     c0.3,0.8,0.6,1.9,0.6,1.9h0.1c0,0,0.2-1.1,0.5-1.9l3.8-10.3h3.3l-7.3,18.5c-1,2.4-2.9,3.7-5.1,3.7c-1.8,0-3-1-3-1L529.1,141.3z"></path>
		</g>
	</g>
	<g>
		<g>
			<path class="st1" d="M31.5,74.1c0,22.5,18.3,40.7,40.7,40.7c6.7,0,13.3-1.7,19.2-4.8c0.1-0.1,0.1-0.3,0-0.3     c-5.8-3.6-10.7-8.6-14.1-14.5c-3.7-6.4-5.7-13.7-5.7-21.1s2-14.7,5.7-21.1c3.4-5.9,8.3-10.9,14.1-14.5c0.1-0.1,0.1-0.3,0-0.3     c-5.9-3.2-12.5-4.8-19.2-4.8C49.8,33.4,31.5,51.7,31.5,74.1z"></path>
		</g>
		<g>
			<path class="st2" d="M110.9,66.3c-0.5-2.1-1.3-3.4-2.3-4.1c-0.5-0.3-1-0.5-1.6-0.5c-0.6,0-1.4,0.2-2.1,0.5     c-5.8,2.5-24.8,10.6-25,10.7c-0.4,0.2-1.3,0.7-1.3,1.2s0.9,1.1,1.3,1.3l0,0c2,0.8,19.5,8.3,25,10.7c1.5,0.7,2.8,0.7,3.7,0.1     c1-0.7,1.8-2,2.3-4.1c0.5-2,0.8-4.7,0.8-7.9v-0.7C111.6,70.6,111.3,68.1,110.9,66.3z"></path>
		</g>
		<g>
			<path class="st2" d="M93.4,105.5c0.9,0.6,2.2,0.5,3-0.2c0.8-0.6,1.5-1.3,2.3-2.1l0.5-0.4c2.1-2,3.7-3.9,4.8-5.5     c1.2-1.8,1.6-3.3,1.4-4.5c-0.1-0.6-0.3-1-0.8-1.5c-0.4-0.5-1-0.9-1.8-1.2c-5.7-2.5-24.4-10.8-24.9-11c-0.1,0-0.2-0.1-0.4-0.1     c-0.2,0-0.4,0.1-0.6,0.2c-0.3,0.2-0.4,0.5-0.3,0.8C78.4,90.5,84.5,99.7,93.4,105.5z"></path>
		</g>
		<g>
			<path class="st2" d="M104,50.9c-1.1-1.8-2.9-3.7-5.2-5.9l-0.5-0.4C97.6,44,97,43.4,96.4,43c-0.9-0.7-2.1-0.8-3-0.2     c-8.9,5.7-15,15-16.6,25.4c-0.1,0.3,0.1,0.6,0.3,0.8c0.3,0.2,0.6,0.3,0.9,0.1l0,0c0.3-0.1,19.1-8.5,24.9-11     c1.5-0.7,2.4-1.6,2.6-2.7C105.6,54.2,105.1,52.7,104,50.9z"></path>
		</g>
	</g>
	<g>
		<g>
			<path class="st3" d="M199,66.5c-2.3-1.5-5-2.2-8.1-2.2c-3.3,0-6.2,0.8-8.5,2.4c-2.3,1.6-4,3.6-5.1,6.2c-1.1,2.5-1.7,5.3-1.7,8.3     c0,5.3,1.5,9.5,4.4,12.4c2.9,2.9,6.7,4.4,11.8,4.4c2.5,0,4.9-0.2,6.5-0.7c1.6-0.5,3.2-1.2,4.9-2.1c1.1-0.6,1.7-1.4,1.7-2.4     c0-0.7-0.3-1.3-0.8-1.8c-0.5-0.5-1.1-0.7-1.8-0.7c-0.4,0-0.8,0.1-1.1,0.3c-1.3,0.6-2.6,1.1-3.9,1.5c-1.3,0.3-2.9,0.5-4.7,0.5     c-3.3,0-6-0.8-7.8-2.5c-1.8-1.6-2.9-3.7-3.3-6.5c0-0.2,0.1-0.4,0.4-0.4h21.1c0.9,0,1.6-0.3,2.1-0.8c0.5-0.6,0.8-1.2,0.8-2     c0-2.9-0.6-5.5-1.8-8C203,69.9,201.3,67.9,199,66.5z M199.9,78.5h-18c-0.2,0-0.4-0.2-0.4-0.4c0.2-1.9,0.7-3.5,1.6-4.8     c0.9-1.4,2.1-2.4,3.5-3.1c1.4-0.7,2.8-1,4.3-1c1.4,0,2.9,0.3,4.3,1c1.4,0.7,2.6,1.7,3.5,3.1c0.9,1.3,1.4,2.9,1.6,4.8     C200.3,78.3,200.1,78.5,199.9,78.5z"></path>
		</g>
		<g>
			<path class="st3" d="M230,80.4c-1.6-0.6-3.6-1.2-6.1-1.9c-2.5-0.6-4.3-1.1-5.5-1.7c-1.2-0.6-1.8-1.5-1.8-2.8     c0-1.3,0.6-2.4,1.9-3.2c1.3-0.8,3.1-1.2,5.4-1.2c2.4,0,4.8,0.4,7.2,1.1c0.3,0.1,0.6,0.1,0.8,0.1c0.7,0,1.3-0.3,1.8-0.8     c0.5-0.5,0.7-1.1,0.7-1.8c0-0.5-0.2-1-0.5-1.5c-0.3-0.5-0.8-0.8-1.4-1c-2.9-1.1-6-1.6-9.2-1.6c-4,0-7,0.9-9.2,2.8     c-2.1,1.9-3.2,4.3-3.2,7.2c0,2.1,0.6,3.8,1.7,5.1c1.2,1.3,2.6,2.3,4.2,2.9c1.6,0.6,3.7,1.3,6.2,1.8c2.5,0.6,4.2,1.2,5.3,1.7     c1.1,0.5,1.6,1.3,1.6,2.2c0,3-2.4,4.5-7.1,4.5c-1.7,0-3.2-0.2-4.6-0.5c-1.4-0.3-2.7-0.8-4.1-1.4c-0.4-0.2-0.8-0.3-1.1-0.3     c-0.7,0-1.3,0.3-1.8,0.8c-0.5,0.5-0.7,1.1-0.7,1.8c0,0.9,0.4,1.6,1.1,2.1c3.5,1.9,7.1,2.9,11.3,2.9c3.9,0,7.2-0.9,9.3-2.7     c2.1-1.8,3.2-4,3.2-6.7c0-2.2-0.6-4-1.7-5.3C232.9,82,231.5,81,230,80.4z"></path>
		</g>
		<g>
			<path class="st3" d="M265,65.9c-1.7-1.1-3.7-1.7-6.1-1.7c-2.5,0-4.5,0.5-6.7,1.4c-1.6,0.7-3.3,1.6-4.9,3.1     c-0.1,0.1-0.3,0-0.3-0.1V53.5c0-0.8-0.3-1.5-0.9-2.1c-0.6-0.6-1.3-0.9-2.1-0.9c-0.8,0-1.5,0.3-2,0.9c-0.6,0.6-0.8,1.3-0.8,2.1     v41.3c0,0.8,0.3,1.5,0.8,2c0.6,0.6,1,0.8,1.8,0.8c0.8,0,1.8-0.3,2.3-0.8c0.6-0.6,0.9-1.2,0.9-2V77.6c0-1.3,0.5-2.5,1.3-3.4     c1.1-1.2,2.2-2.1,3.4-2.9c1.7-1.1,3.6-1.7,5.7-1.7c4.7,0,7,2.6,7,7.8v17.4c0,0.8,0.3,1.5,0.8,2c0.6,0.6,1,0.8,1.8,0.8     c0.8,0,1.8-0.3,2.3-0.8c0.6-0.6,0.9-1.2,0.9-2V76.7c0-2.3-0.5-4.4-1.4-6.3C268.1,68.5,266.8,67,265,65.9z"></path>
		</g>
		<g>
			<path class="st3" d="M171.6,64.3h-0.3c-3.7,0.3-6.2,1.2-9.6,4.1c0,0,0,0,0,0c-0.3,0.2-0.3-0.1-0.3-0.2l0,0c0,0,0,0,0,0l0,0l0-0.7     c0-0.8-0.3-1.5-0.9-2.1c-0.6-0.6-1.3-0.9-2.1-0.9c-0.8,0-1.5,0.3-2,0.9c-0.6,0.6-0.8,1.3-0.8,2.1v27.3c0,0.8,0.3,1.5,0.8,2     c0.6,0.6,1.2,0.8,2,0.8c0.8,0,1.5-0.3,2.1-0.8c0.6-0.6,0.9-1.2,0.9-2V76.5c0-0.7,0.2-1.4,0.7-1.9c1-1.3,2.2-2.4,3.6-3.2     c1.7-1,3.6-1.5,5.6-1.5h0.3c0.8,0,1.5-0.3,2.1-0.8c0.6-0.5,0.8-1.2,0.8-2c0-0.8-0.3-1.5-0.8-2C173,64.6,172.4,64.3,171.6,64.3z"></path>
		</g>
		<g>
			<path class="st3" d="M148.3,50.6L148.3,50.6c-1-0.2-2-0.4-3.1-0.4c-1.6,0-3.1,0.4-4.6,1.1c-1.5,0.7-2.6,1.9-3.6,3.6     c-0.9,1.6-1.4,3.7-1.4,6.3v3.4c0,0.2-0.1,0.3-0.3,0.3H132c-0.7,0-1.3,0.2-1.7,0.7c-0.5,0.5-0.7,1.1-0.7,1.8     c0,0.7,0.2,1.3,0.7,1.7c0.5,0.5,1.1,0.7,1.7,0.7h3.4c0.2,0,0.3,0.1,0.3,0.3v24.6c0,0.8,0.3,1.5,0.8,2c0.6,0.6,1.2,0.8,2,0.8     c0.8,0,1.5-0.3,2.1-0.8c0.6-0.6,0.9-1.2,0.9-2V70.2c0-0.2,0.1-0.3,0.3-0.3h2.9h3c0.7,0,1.3-0.2,1.7-0.7c0.5-0.5,0.7-1.1,0.7-1.8     c0-0.7-0.2-1.3-0.7-1.7c-0.5-0.5-1.1-0.7-1.7-0.7h-3h-2.9c-0.2,0-0.3-0.1-0.3-0.3v-3.2c0-2.1,0.4-3.6,1.3-4.4     c0.6-0.6,1.5-1,2.7-1.1c0,0,0.1,0,0.1,0c0.7-0.1,1.4-0.1,2,0c0.3,0,0.7,0.1,1.2,0.2c0,0,0,0,0.1,0c0.1,0,0.1,0,0.2,0     c0,0,0.1,0,0.1,0c0.3,0,0.5,0.1,0.7,0.1c0.4,0,0.8-0.1,1.2-0.3c0.2-0.1,0.3-0.2,0.4-0.3l0,0c0,0,1-1,0.5-2.7     C151.7,52.1,151,51.3,148.3,50.6z"></path>
		</g>
		<g>
			<path class="st3" d="M323.1,66.4c-2.3-1.5-5-2.2-8.1-2.2c-3.3,0-6.1,0.8-8.4,2.4c-2.3,1.6-4,3.6-5.1,6.2     c-1.1,2.5-1.6,5.2-1.6,8.2c0,5.2,1.5,9.4,4.3,12.3v0c2.9,2.9,6.9,4.4,12,4.4c2.5,0,4.5-0.2,6.1-0.7c1.6-0.5,3.2-1.1,4.8-2.1     c1.6-0.9,2-2.1,2-2.9c0-0.9-0.3-1.7-1-2.3c-0.6-0.6-1.4-0.9-2.2-0.9c-0.5,0-1,0.1-1.5,0.3c-1.1,0.6-2.3,1-3.5,1.3     c-1.2,0.3-2.6,0.5-4.2,0.5c-2.9,0-5.2-0.7-6.8-2.1c-1.3-1.2-2.2-2.7-2.6-4.6c0-0.2,0.1-0.4,0.4-0.4h18.9c1.1,0,2-0.3,2.6-1     c0.7-0.7,1-1.5,1-2.5c0-2.8-0.6-5.5-1.8-7.9C327.1,69.8,325.4,67.8,323.1,66.4z M322.5,77.5h-14.9c-0.2,0-0.4-0.2-0.4-0.4     c0.2-1.2,0.6-2.3,1.2-3.2c0.8-1.2,1.8-2.1,2.9-2.6c2.4-1.1,4.9-1.1,7.3,0c1.2,0.6,2.2,1.4,3,2.6c0.6,0.9,1,1.9,1.2,3.1     C322.9,77.3,322.7,77.5,322.5,77.5z"></path>
		</g>
		<g>
			<path class="st3" d="M339.4,51.6c-1,0-1.8,0.4-2.5,1.1c-0.7,0.7-1,1.6-1,2.5V94c0,1,0.3,1.8,1,2.5c0.7,0.7,1.5,1,2.5,1     c1,0,1.8-0.3,2.5-1c0.7-0.7,1.1-1.5,1.1-2.5V55.2c0-1-0.3-1.9-1-2.6C341.3,51.9,340.4,51.6,339.4,51.6z"></path>
		</g>
		<g>
			<path class="st3" d="M372.4,66.4c-2.3-1.5-5-2.2-8.1-2.2c-3.3,0-6.1,0.8-8.4,2.4c-2.3,1.6-4,3.6-5.1,6.2     c-1.1,2.5-1.6,5.2-1.6,8.2c0,5.2,1.5,9.4,4.3,12.3c2.9,2.9,6.9,4.4,12,4.4c2.5,0,4.5-0.2,6.1-0.7c1.6-0.5,3.2-1.1,4.8-2.1     c1.6-0.9,2-2.1,2-2.9c0-0.9-0.3-1.7-1-2.3c-0.6-0.6-1.4-0.9-2.2-0.9c-0.5,0-1,0.1-1.5,0.3c-1.1,0.6-2.3,1-3.5,1.3     c-1.2,0.3-2.6,0.5-4.2,0.5c-2.9,0-5.2-0.7-6.8-2.1c-1.3-1.2-2.2-2.7-2.6-4.6c0-0.2,0.1-0.4,0.4-0.4h18.9c1.1,0,2-0.3,2.6-1     c0.7-0.7,1-1.5,1-2.5c0-2.8-0.6-5.5-1.8-7.9C376.4,69.8,374.7,67.8,372.4,66.4z M371.8,77.5h-14.9c-0.2,0-0.4-0.2-0.4-0.4     c0.2-1.2,0.6-2.3,1.2-3.2c0.8-1.2,1.8-2.1,2.9-2.6c2.4-1.1,4.9-1.1,7.3,0c1.2,0.6,2.2,1.4,3,2.6c0.6,0.9,1,1.9,1.2,3.1     C372.2,77.3,372,77.5,371.8,77.5z"></path>
		</g>
		<g>
			<path class="st3" d="M409,64.7c-0.7,0-1.3,0.2-1.9,0.6c-0.6,0.4-1,0.9-1.3,1.5l-8.2,20.9c0,0.1-0.2,0.1-0.3,0L389,66.8l0,0     c-0.3-0.6-0.7-1.1-1.3-1.5c-0.6-0.4-1.2-0.6-1.9-0.6c-1,0-1.8,0.4-2.5,1.1c-0.7,0.7-1,1.6-1,2.5c0,0.5,0.1,1,0.4,1.6L393,94.8     c0.3,0.8,0.9,1.4,1.6,1.9c0.7,0.5,1.6,0.8,2.5,0.8h0.6c0.9,0,1.7-0.3,2.5-0.8c0.7-0.5,1.3-1.2,1.6-2l10.4-24.9     c0.2-0.6,0.4-1.1,0.4-1.6c0-1-0.3-1.8-1-2.5C410.8,65.1,410,64.7,409,64.7z"></path>
		</g>
		<g>
			<path class="st3" d="M437.2,66c-2-1.2-4.5-1.8-7.4-1.8c-3.6,0-7.2,0.7-10.7,2.2c-1.4,0.6-2.1,1.6-2.1,3.1c0,0.9,0.3,1.6,0.9,2.2     c0.6,0.6,1.3,0.9,2.2,0.9c0.3,0,0.6,0,1-0.1l0.1,0c1.4-0.5,2.7-0.8,3.8-1.1c1.1-0.2,2.4-0.3,3.9-0.3c2.5,0,4.4,0.5,5.5,1.5     c1,0.9,1.5,2.3,1.6,4.3c0,0.2-0.2,0.4-0.4,0.4l-6,0c-4.7,0-8.3,0.9-10.8,2.8c-2.5,1.9-3.8,4.5-3.8,7.7c0,2,0.5,3.7,1.4,5.2     c1,1.5,2.3,2.7,3.9,3.4h0c1.6,0.8,3.4,1.2,5.2,1.2c4,0,7.4-1.1,10.2-3.3c0.1-0.1,0.2,0,0.2,0.1c0.1,0.7,0.4,1.4,1,1.9     c0.7,0.7,1.5,1,2.5,1c1,0,1.8-0.3,2.5-1c0.7-0.7,1.1-1.5,1.1-2.5V76.8c0-2.2-0.5-4.3-1.4-6.2C440.8,68.7,439.2,67.2,437.2,66z      M436,86.8c0,0.2-0.1,0.5-0.2,0.6c-1,1-2.1,1.8-3.4,2.5l0,0c-1.5,0.8-3.1,1.2-4.7,1.2c-2,0-3.5-0.4-4.3-1.1     c-0.8-0.7-1.2-1.6-1.2-2.8c0-2.6,2.8-3.9,8.2-3.9h5.3c0.2,0,0.4,0.2,0.4,0.4V86.8z"></path>
		</g>
		<g>
			<path class="st3" d="M500.2,71c1.3,0,2.4,0.1,3.2,0.4c0.9,0.3,2,0.8,3.2,1.4c0.6,0.3,1.1,0.5,1.7,0.5c0.8,0,1.6-0.3,2.2-1     c0.6-0.7,0.9-1.4,0.9-2.2c0-1.2-0.5-2.1-1.6-2.8c-1.4-0.9-2.9-1.6-4.5-2.1c-1.6-0.6-3.6-0.9-5.8-0.9c-3,0-5.8,0.7-8.4,2     c-2.6,1.3-4.6,3.3-6.2,5.8c-1.5,2.5-2.3,5.5-2.3,8.9c0,3.4,0.8,6.4,2.3,8.9c1.5,2.5,3.6,4.5,6.2,5.8c2.5,1.3,5.4,2,8.4,2     c2.2,0,4.1-0.3,5.8-0.9c1.6-0.6,3.1-1.3,4.5-2.2c1-0.7,1.6-1.6,1.6-2.8c0-0.8-0.3-1.6-0.9-2.2c-0.6-0.7-1.4-1-2.2-1     c-0.6,0-1.2,0.2-1.7,0.5c-1.3,0.7-2.4,1.1-3.2,1.4c-0.8,0.3-1.9,0.4-3.2,0.4c-3.2,0-5.7-0.9-7.5-2.7c-1.8-1.8-2.7-4.2-2.7-7.2     c0-3,0.9-5.4,2.7-7.2C494.5,71.9,497,71,500.2,71z"></path>
		</g>
		<g>
			<path class="st3" d="M522,83.6h18.9c1.1,0,2-0.3,2.6-1c0.7-0.7,1-1.5,1-2.5c0-2.8-0.6-5.5-1.8-7.9c-1.2-2.4-2.9-4.4-5.2-5.8     c-2.3-1.5-5-2.2-8.1-2.2c-3.3,0-6.1,0.8-8.4,2.4c-2.3,1.6-4,3.6-5.1,6.2c-1.1,2.5-1.6,5.2-1.6,8.2c0,5.2,1.5,9.4,4.3,12.3     c2.9,2.9,6.9,4.4,12,4.4c2.5,0,4.5-0.2,6.1-0.7c1.6-0.5,3.2-1.1,4.8-2.1c1.6-0.9,2-2.1,2-2.9c0-0.9-0.3-1.7-1-2.3     c-0.6-0.6-1.4-0.9-2.2-0.9c-0.5,0-1,0.1-1.5,0.3c-1.1,0.6-2.3,1-3.5,1.3c-1.2,0.3-2.6,0.5-4.2,0.5c-2.9,0-5.2-0.7-6.8-2.1     c-1.3-1.2-2.2-2.7-2.6-4.6C521.6,83.8,521.8,83.6,522,83.6z M521.6,77.1c0.2-1.2,0.6-2.3,1.2-3.2c0.8-1.2,1.8-2.1,2.9-2.6     c2.4-1.1,4.9-1.1,7.3,0c1.2,0.6,2.2,1.4,3,2.6c0.6,0.9,1,1.9,1.2,3.1c0,0.2-0.1,0.4-0.4,0.4H522     C521.8,77.5,521.6,77.3,521.6,77.1z"></path>
		</g>
		<g>
			<path class="st3" d="M294.9,64.4h-0.3c-3,0-5.7,1.3-8.2,3.8c0,0,0,0,0,0c-0.3,0.3-0.3-0.2-0.3-0.2l0,0c-0.1-0.9-0.4-1.6-1-2.3     c-0.7-0.7-1.6-1.1-2.5-1.1c-1,0-1.8,0.4-2.5,1.1c-0.7,0.7-1,1.6-1,2.5V94c0,1,0.3,1.8,1,2.5c0.7,0.7,1.5,1,2.5,1     c1,0,1.8-0.3,2.5-1c0.7-0.7,1.1-1.5,1.1-2.5V77.1c0-0.7,0.3-1.4,0.7-1.9c0.8-1,1.8-1.8,2.9-2.4c1.5-0.9,3.1-1.3,4.8-1.3h0.3     c1,0,1.9-0.3,2.6-0.9c0.7-0.6,1.1-1.5,1.1-2.5c0-1-0.3-1.8-1-2.5C296.7,64.8,295.9,64.4,294.9,64.4z"></path>
		</g>
		<g>
			<path class="st3" d="M473.1,66.1c-1.7-1.1-3.8-1.7-6.2-1.7c-2.5,0-4.8,0.5-6.6,1.6c-1.1,0.6-2.2,1.4-3.3,2.4c0,0,0,0-0.1,0     c-0.3,0.3-0.3-0.1-0.3-0.1c0-1-0.4-1.8-1.1-2.5c-0.7-0.7-1.6-1.1-2.5-1.1c-1,0-1.8,0.4-2.5,1.1c-0.7,0.7-1,1.6-1,2.5V94     c0,1,0.3,1.8,1,2.5c0.7,0.7,1.5,1,2.5,1c1,0,1.8-0.3,2.5-1c0.7-0.7,1.1-1.5,1.1-2.5V77.5c0-0.7,0.3-1.4,0.7-2     c1.1-1.2,2.2-2.1,3.3-2.9c1.4-0.9,3.1-1.4,4.9-1.4c3.9,0,5.7,2,5.7,6.4V94c0,1,0.3,1.8,1,2.5c0.7,0.7,1.5,1,2.5,1     c1,0,1.8-0.3,2.5-1c0.7-0.7,1.1-1.5,1.1-2.5V77c0-2.3-0.5-4.4-1.4-6.3C476.2,68.8,474.8,67.3,473.1,66.1z"></path>
		</g>
	</g>
</g>
</svg>
